<svg width="87" height="56" viewBox="0 0 87 56" fill="none" xmlns="http://www.w3.org/2000/svg">
<path d="M16.2075 46.0152C15.3005 46.6307 15.1685 47.725 14.5133 48.548C13.9551 48.2066 13.542 47.7477 13.1345 47.2859C11.5986 45.5451 10.4404 43.5501 9.33176 41.5217C8.01841 39.1186 6.86065 36.6274 5.3313 34.3465C4.76453 33.5012 4.14181 32.7048 3.37563 32.0339C2.61289 31.366 1.76394 30.8925 0.715759 30.8902C0.424207 30.8896 0.166218 30.8543 0.138263 30.4522C0.0693418 29.4609 -0.0414968 28.4718 0.0159845 27.4758C0.0799297 26.3678 0.663165 25.9275 1.73657 26.2039C2.42581 26.3814 3.05405 26.7172 3.67159 27.0674C5.2141 27.9423 6.98855 26.8728 6.95832 25.0631C6.936 23.727 6.38433 22.5467 5.75927 21.4079C5.09407 20.196 4.33312 19.0431 3.4704 17.9637C3.21603 17.6455 3.1318 17.3607 3.30822 16.9618C3.45398 16.6322 3.46875 16.2529 3.49784 15.8835C3.58203 14.8144 4.07655 14.2826 5.0566 14.2742C6.95571 14.258 8.75496 14.5604 10.2752 15.8794C11.5683 17.0015 13.1999 17.3921 14.8138 17.7453C17.4208 18.3157 19.6735 19.5189 21.5689 21.4076C21.8846 21.7222 22.2559 21.9234 22.6914 21.9951C25.1429 22.3991 27.1648 23.6558 29.0214 25.239C29.5532 25.6926 30.0745 26.1586 30.5305 26.6927C29.39 24.6451 27.6718 23.2421 25.6185 22.2153C25.3884 22.1003 25.1572 21.9567 24.9109 21.9105C23.9585 21.7319 23.5031 21.0189 23.0718 20.2585C21.3722 17.2622 20.1909 14.0731 19.7834 10.6418C19.5358 8.55689 19.5386 6.45695 20.3247 4.43908C21.0758 2.51107 22.3774 1.12338 24.2317 0.251832C24.2706 0.233571 24.3088 0.211162 24.3498 0.20094C24.6864 0.117109 25.1143 -0.20606 25.3379 0.201174C25.5755 0.634005 25.0784 0.813442 24.7896 0.997148C22.5049 2.45077 21.6285 4.53615 22.0168 7.20334C22.1301 7.98152 22.1899 8.77163 22.5403 9.50808C22.8968 9.36548 22.9341 9.05721 23.064 8.82374C23.8279 7.45099 24.9974 6.65115 26.5117 6.36326C26.7737 6.31345 27.183 6.14168 27.3082 6.51438C27.4335 6.8871 27.0274 6.99088 26.7707 7.12185C25.8033 7.61546 24.9283 8.19325 24.3465 9.17342C23.5352 10.5402 23.4406 12.0315 23.6945 13.5083C24.3504 17.3215 26.2229 20.4941 28.9877 23.1481C29.1113 23.2668 29.2459 23.378 29.3894 23.4705C29.8826 23.7883 30.1957 23.6302 30.2561 23.0319C30.3092 22.5052 30.1462 22.0052 30.0481 21.4978C29.249 17.3681 29.5215 13.3621 31.5085 9.59089C33.1988 6.38279 35.8935 4.46448 39.3556 3.5921C39.4795 3.56086 39.6093 3.52982 39.7351 3.53419C39.9464 3.54152 40.1959 3.53583 40.2605 3.80287C40.3151 4.02901 40.1356 4.16146 39.9681 4.25835C39.2993 4.64524 38.6126 5.00186 37.954 5.40532C34.4104 7.57604 32.6055 10.7592 32.4943 14.9403C32.4201 17.7297 33.0931 20.3745 33.9529 22.9871C34.0478 23.2755 34.2206 23.5316 34.4507 23.7342C34.8928 24.1236 35.3931 24.0542 35.7055 23.5533C35.9142 23.2187 35.9853 22.8403 36.0399 22.4486C36.4953 19.1768 37.3952 16.0687 39.4346 13.4039C41.2823 10.9894 43.7363 9.62429 46.7177 9.20966C47.0745 9.16004 47.4462 9.13798 47.7998 9.26941C48.0085 9.34702 48.1932 9.45652 48.2049 9.71576C48.2162 9.96644 48.0626 10.1189 47.8653 10.2221C47.7341 10.2908 47.5856 10.3287 47.4417 10.3691C43.2969 11.5326 40.9319 14.4801 39.5745 18.4082C39.0567 19.9065 38.9485 21.4442 39.4362 22.9877C39.8746 24.3752 40.8064 25.3161 42.0897 25.9091C45.2944 27.3901 48.1365 26.639 50.2561 23.7486C51.3897 22.2026 52.4421 20.5985 53.7317 19.169C56.2888 16.3344 59.3447 14.2434 62.856 12.8128C64.0279 12.3353 65.2115 11.8841 66.448 11.6059C66.844 11.5169 67.4262 11.2822 67.5938 11.7575C67.7524 12.207 67.152 12.3876 66.8043 12.5374C64.8127 13.3956 62.8276 14.2657 60.9937 15.4405C59.0245 16.7021 57.1922 18.122 56.042 20.239C54.4611 23.1487 55.449 26.0248 58.457 27.3613C60.6075 28.3168 62.8238 28.3459 65.0657 27.814C69.3069 26.8078 73.004 24.7529 76.2562 21.8478C77.4171 20.8108 78.4339 19.6471 79.3716 18.4069C79.5771 18.1351 79.8011 17.7614 80.1938 17.977C80.6053 18.2029 80.4627 18.6247 80.3161 18.9628C79.4771 20.8978 78.2013 22.5073 76.6729 23.9332C76.413 24.1757 75.8747 24.3752 76.0814 24.8154C76.2749 25.2274 76.7495 24.9297 77.0855 24.8863C80.1817 24.4857 82.4718 22.6967 84.4971 20.4627C84.844 20.0801 85.1762 19.6834 85.5336 19.3114C85.6988 19.1395 85.9118 19.0014 86.165 19.1583C86.4 19.3038 86.419 19.5448 86.395 19.7896C86.3646 20.0991 86.2037 20.3579 86.0648 20.6268C84.2594 24.1235 81.3419 26.1183 77.6123 27.0419C76.7411 27.2576 75.8811 27.5229 75.0577 27.9051C72.8998 28.9068 72.2567 31.3089 73.6412 33.2652C74.6387 34.6747 76.0235 35.6173 77.4801 36.4571C80.197 38.0235 83.1157 39.0757 86.1457 39.8304C86.312 39.8718 86.4787 39.9115 86.6443 39.9555C87.0493 40.0629 87.0493 40.2814 86.8028 40.5617C86.547 40.8527 86.2832 41.1367 86.0325 41.4321C85.5141 42.043 85.4555 42.703 85.8246 43.4152C86.0646 43.8783 86.3767 44.2892 86.6874 44.7024C86.8254 44.8861 87.0046 45.05 86.9999 45.3418C86.4765 45.4504 86.008 45.2663 85.5402 45.1663C79.7072 43.919 75.1436 40.7547 71.7187 35.8575C71.0315 34.875 70.4107 33.8226 69.3161 33.1953C68.74 32.8651 68.1276 32.6383 67.4885 32.6451C62.3537 32.6998 57.4353 31.4068 52.5004 30.2258C47.9015 29.1253 43.2491 28.789 38.5342 29.0103C37.0426 29.0803 35.5382 28.9508 34.039 28.996C33.9561 28.9985 33.8735 29.0113 33.7902 29.0423C35.7367 29.1428 37.6696 29.3101 39.5718 29.7743C41.7418 30.3038 43.7346 31.2108 45.609 32.4253C46.932 33.2824 48.1841 34.2892 49.8299 34.601C49.6963 34.9928 49.4171 35.1586 49.1704 35.3502C46.4463 37.4656 43.3523 37.7937 40.0825 37.2547C38.4905 36.9923 36.9595 36.5134 35.4652 35.906C35.1409 35.7742 34.8174 35.6139 34.4332 35.6814C34.9269 36.102 35.4921 36.3843 36.0834 36.6005C36.9484 36.9167 37.8236 37.2066 38.7023 37.4822C39.1084 37.6095 39.3962 37.7874 39.6058 38.2092C40.1281 39.2603 41.086 39.8665 42.0759 40.4012C43.8613 41.3656 45.7776 41.9924 47.7163 42.5471C53.7513 44.2738 59.8993 45.5632 65.9234 47.3342C71.7752 49.0546 77.5072 51.0864 82.9306 53.9268C84.0672 54.522 85.1766 55.1699 86.3 55.7943C86.16 56.0985 85.9791 55.9874 85.8323 55.9444C82.8503 55.0719 79.8293 54.3537 76.7969 53.6927C73.5347 52.9815 70.2537 52.3627 66.955 51.8383C62.8946 51.1928 58.8158 50.6983 54.7262 50.3057C52.4679 50.089 50.1953 50.0285 47.931 49.8709C43.5424 49.5654 39.148 49.5751 34.755 49.6534C30.8355 49.7231 26.9244 50.0136 23.0147 50.2995C22.5886 50.3307 22.1616 50.3848 21.7425 50.4674C21.3522 50.5444 21.1839 50.3758 21.1147 50.0191C21.0613 49.7439 21.0032 49.4685 20.9268 49.199C20.6403 48.1881 20.4842 47.2047 20.9628 46.1774C21.207 45.6532 21.2356 45.0267 21.3584 44.4614C21.6462 44.4523 21.7003 44.7131 21.9271 44.7755C22.4419 44.3391 22.5238 43.6294 22.8699 43.0514C23.4231 43.2787 23.4466 43.9141 23.9289 44.2918C25.1314 42.4833 25.5471 40.4643 25.5521 38.3081C26.4513 38.3844 26.6396 39.2115 27.2863 39.6546C27.392 38.4317 27.3813 37.3256 27.0178 36.1458C26.8086 36.85 27.083 37.5169 26.8135 38.1129C26.4084 38.1158 26.2081 37.8081 25.9143 37.6862C25.2119 37.3948 24.925 37.5423 24.935 38.3012C24.9519 39.5888 24.7909 40.844 24.3994 42.0681C24.2899 42.4106 24.194 42.7669 23.8865 43.0392C23.3657 42.7153 23.087 42.0993 22.4407 41.9299C22.1278 42.4686 22.2998 43.1731 21.8747 43.6729C21.5061 43.5474 21.3043 43.1826 20.8797 43.0894C20.6198 44.2465 20.7072 45.4832 20.1439 46.6527C18.9153 45.7744 17.6822 45.1829 16.2075 46.0152ZM35.2576 35.0268C37.8768 36.1771 40.5449 36.8961 43.4214 35.9473C40.04 35.4676 36.843 34.5021 33.8164 32.6002C34.574 32.4398 35.2484 32.7311 35.9148 32.3363C34.9746 31.6838 33.9576 31.3688 33.0337 30.5968C37.7534 29.9941 41.8934 31.1768 45.7617 33.578C41.4361 30.4871 36.6317 29.5609 31.3743 30.1763C31.9148 30.9277 32.6912 31.198 33.3244 31.7218C32.8726 31.9748 32.4946 31.6461 32.1112 31.7753C32.2692 32.2601 32.8093 32.4278 32.9625 32.9759C32.3398 32.8803 31.7819 32.7946 31.224 32.709C32.4687 33.622 33.7942 34.3486 35.2576 35.0268ZM26.3434 25.0843C26.0712 24.8433 25.7312 24.6474 25.5388 24.3532C24.831 23.2711 23.8134 23.2966 22.7478 23.501C22.3093 23.5852 21.8031 23.5513 21.4489 24.0314C21.8749 24.5575 22.4129 24.4244 22.9146 24.3135C23.5791 24.1665 24.177 24.2108 24.7175 24.6752C24.9434 24.8693 25.1992 25.0362 25.4615 25.1775C26.0839 25.5127 26.6728 25.9385 27.5203 26.0531C27.1924 25.5658 26.7372 25.4348 26.3434 25.0843ZM17.325 19.515C15.3176 18.4029 12.999 18.1974 10.828 17.2061C11.2566 17.8665 11.8076 18.1844 12.3966 18.4147C14.388 19.1934 16.4906 19.6065 18.5512 20.2191C18.1717 19.997 17.7922 19.7748 17.325 19.515ZM5.20249 15.3719C5.56985 15.1152 6.01788 15.0744 6.43271 14.9243C5.80543 14.67 5.18474 14.5854 4.5735 14.8961C4.29778 15.0363 4.2185 15.315 4.21878 15.6117C4.21891 15.7519 4.27933 15.8724 4.42086 15.908C4.72404 15.9844 4.81074 15.7033 4.97429 15.5495C5.02112 15.5054 5.0731 15.4669 5.20249 15.3719Z" fill="black"/>
</svg>
